<svg xmlns="http://www.w3.org/2000/svg" width="45" height="45" viewBox="0 0 45 45"><g transform="translate(-152 -79)"><rect width="45" height="45" transform="translate(152 79)" fill="#ffb148"/><path d="M6.868-23.8H1.36V0H5.1V-8.942H6.868c3.74,0,5.576-2.074,5.576-5.882v-3.094C12.444-21.726,10.608-23.8,6.868-23.8Zm0,3.4c1.19,0,1.836.544,1.836,2.244v3.57c0,1.7-.646,2.244-1.836,2.244H5.1V-20.4ZM20.162-9.86h1.7v4.386c0,1.7-.748,2.312-1.938,2.312s-1.938-.612-1.938-2.312V-18.326c0-1.7.748-2.346,1.938-2.346s1.938.646,1.938,2.346v2.55H25.4v-2.312c0-3.808-1.9-5.984-5.576-5.984s-5.576,2.176-5.576,5.984V-5.712c0,3.808,1.9,5.984,5.576,5.984S25.4-1.9,25.4-5.712V-13.26H20.162Z" transform="translate(160.64 113.072)" fill="#2d2d2d"/></g></svg>