<svg width="16" height="16" viewBox="0 0 16 16" fill="none" xmlns="http://www.w3.org/2000/svg">
<rect width="16" height="16" rx="2" fill="#1F2D37"/>
<path fill="#FED7AA" d="M5.08057 8.61377H3.41504V7.73926H5.08057C5.37061 7.73926 5.60498 7.69238 5.78369 7.59863C5.9624 7.50488 6.09277 7.37598 6.1748 7.21191C6.25977 7.04492 6.30225 6.85449 6.30225 6.64062C6.30225 6.43848 6.25977 6.24951 6.1748 6.07373C6.09277 5.89502 5.9624 5.75146 5.78369 5.64307C5.60498 5.53467 5.37061 5.48047 5.08057 5.48047H3.75342V11H2.65039V4.60156H5.08057C5.57568 4.60156 5.99609 4.68945 6.3418 4.86523C6.69043 5.03809 6.95557 5.27832 7.13721 5.58594C7.31885 5.89062 7.40967 6.23926 7.40967 6.63184C7.40967 7.04492 7.31885 7.39941 7.13721 7.69531C6.95557 7.99121 6.69043 8.21826 6.3418 8.37646C5.99609 8.53467 5.57568 8.61377 5.08057 8.61377Z"/>
<path fill="#FED7AA" d="M13.3115 7.73047V10.1738C13.2207 10.2939 13.0786 10.4258 12.8853 10.5693C12.6948 10.71 12.4414 10.8315 12.125 10.9341C11.8086 11.0366 11.4146 11.0879 10.9429 11.0879C10.5415 11.0879 10.1738 11.0205 9.83984 10.8857C9.50586 10.748 9.21729 10.5474 8.97412 10.2837C8.73389 10.02 8.54785 9.69922 8.41602 9.32129C8.28418 8.94043 8.21826 8.50684 8.21826 8.02051V7.57666C8.21826 7.09326 8.27832 6.6626 8.39844 6.28467C8.52148 5.90381 8.69727 5.58154 8.92578 5.31787C9.1543 5.0542 9.42969 4.85498 9.75195 4.72021C10.0771 4.58252 10.4448 4.51367 10.855 4.51367C11.3794 4.51367 11.813 4.60156 12.1558 4.77734C12.5015 4.9502 12.7681 5.19043 12.9556 5.49805C13.1431 5.80566 13.2617 6.15723 13.3115 6.55273H12.2305C12.1953 6.33008 12.1265 6.13086 12.0239 5.95508C11.9243 5.7793 11.7808 5.6416 11.5933 5.54199C11.4087 5.43945 11.1685 5.38818 10.8726 5.38818C10.6177 5.38818 10.3936 5.43652 10.2002 5.5332C10.0068 5.62988 9.8457 5.77197 9.7168 5.95947C9.59082 6.14697 9.49561 6.37549 9.43115 6.64502C9.3667 6.91455 9.33447 7.22217 9.33447 7.56787V8.02051C9.33447 8.37207 9.37109 8.68408 9.44434 8.95654C9.52051 9.229 9.62891 9.45898 9.76953 9.64648C9.91309 9.83398 10.0874 9.97607 10.2925 10.0728C10.4976 10.1665 10.729 10.2134 10.9868 10.2134C11.2388 10.2134 11.4453 10.1929 11.6064 10.1519C11.7676 10.1079 11.895 10.0566 11.9888 9.99805C12.0854 9.93652 12.1602 9.87793 12.2129 9.82227V8.55225H10.8813V7.73047H13.3115Z"/>
</svg>
